<svg width="596" height="227" viewBox="0 0 596 227" fill="none" xmlns="http://www.w3.org/2000/svg">
<g id="Pleg">
<path id="OutsideD" d="M0 226V5.00002H58.5V25C58.5 25 118.253 -1.66551 172.5 5.00002C226.747 11.6656 228.243 220.607 172.5 226C116.757 231.393 58.5 209 58.5 209V226H0Z" fill="#24517B" fill-opacity="0.76"/>
<path id="InsideD" d="M60.5 165V75.5C96.9925 51.0062 137 51 150 51C163 51 175 173.63 147 179C119 184.37 89.3057 177.352 60.5 165Z" fill="white"/>
<path id="Top P" d="M295.5 2.50002H254.5V140.5H295.5V124C313.781 136.605 394.5 140.5 408.5 128.5C422.5 116.5 430.204 55.3838 390.5 2.50002C364.163 -1.98588 344.886 -0.656927 295.5 14.5V2.50002Z" fill="#A0AADE"/>
<path id="Inside P" d="M295 85.5843V54.5843C325.237 34.8537 339.695 31.6715 361.5 38.5843C388.814 51.8919 387.126 62.0036 381 80.0843C371.52 98.5521 362.815 104.448 337.5 102.084C316.016 100.439 306.327 97.2022 295 85.5843Z" fill="white"/>
<circle id="Football" cx="328.5" cy="201.5" r="15.5" fill="#CBCE19"/>
<path id="Goal" d="M584.5 167.5H595.5V69H464V167.5H475M584.5 167.5V156.5M584.5 167.5L531.5 82M475 167.5L542 82M475 167.5V158.5M475 108.5L497.5 82M475 108.5V111.5M475 108.5V90.5M497.5 82H513M497.5 82H492M478 126L513 82M513 82H528.5M513 82L570.25 167.5M475 149.5L528.5 82M475 149.5V135.5M475 149.5V158.5M528.5 82H531.5M542 82H531.5M542 82H549M492 167.5L556 82M556 82H549M556 82H563.125M570.25 82H584.5V90.5M570.25 82L507.5 167.5L475 135.5M570.25 82H563.125M584.5 90.5L525.5 167.5L475 111.5M584.5 90.5V111.5M542 167.5L584.5 111.5M584.5 111.5V135.5M584.5 111.5L565 85.5L563.125 82M584.5 135.5L560 167.5L556 163.5L492 82M584.5 135.5V139.5M576 167.5L584.5 156.5M584.5 156.5V139.5M475 135.5V111.5M538 167.5L475 90.5M475 90.5V82H492M549 82L584.5 139.5M475 158.5L487 167.5" stroke="black"/>
<path id="PLeg1" d="M295 217H254V139H295V217Z" fill="#A0AADE"/>
<g id="Group 4">
<ellipse id="Left Eye" cx="138.609" cy="78.2756" rx="26.2191" ry="25.8807" transform="rotate(0.869329 138.609 78.2756)" fill="#D9D9D9"/>
<ellipse id="Right Eye" cx="353.609" cy="77.2756" rx="26.2191" ry="25.8807" transform="rotate(0.869329 353.609 77.2756)" fill="#EBEBEB"/>
<path id="rupperlid" d="M376.672 70.6445H329.672C324.672 70.6445 331.832 62.3079 338.672 55.6445C350.63 47.9693 365.672 54.6445 367.672 55.6445C369.672 56.6445 383.672 70.6445 376.672 70.6445Z" fill="#A0AADE" stroke="black"/>
<path id="lupperlid" d="M162 71H115C110 71 117.16 62.6633 124 56C135.958 48.3247 151 55 153 56C155 56.9999 169 71 162 71Z" fill="#49608B" stroke="black"/>
<ellipse id="rightpupil" cx="353.5" cy="85" rx="5.5" ry="5" fill="black"/>
<ellipse id="leftpupil" cx="142.5" cy="85" rx="5.5" ry="5" fill="black"/>
<path id="llowerlid" d="M160.5 92H116.5C119.598 98.0814 122.399 99.978 128 102.5C137.964 105.381 141.942 104.63 148.5 102.5C155.572 99.8288 158.082 97.4596 160.5 92Z" fill="#49608B" stroke="black"/>
<path id="rlowerlid" d="M375 91H331C334.098 97.0814 336.899 98.978 342.5 101.5C352.464 104.381 356.442 103.63 363 101.5C370.072 98.8288 372.582 96.4596 375 91Z" fill="#A0AADE" stroke="black"/>
</g>
</g>
</svg>
